<svg width="34" height="36" viewBox="0 0 34 36" fill="none" xmlns="http://www.w3.org/2000/svg">
<path d="M15.247 15.0761C19.1341 15.0761 22.2851 11.9251 22.2851 8.03806C22.2851 4.15105 19.1341 1 15.247 1C11.36 1 8.20898 4.15105 8.20898 8.03806C8.20898 11.9251 11.36 15.0761 15.247 15.0761Z" stroke="#174949" stroke-width="2"/>
<path d="M22.8913 20.301C21.1918 19.069 17.6222 18.2477 15.2467 18.2477C13.3753 18.2477 11.5222 18.6164 9.79327 19.3327C8.06437 20.0491 6.49354 21.0991 5.17053 22.4227C3.84752 23.7463 2.79825 25.3176 2.08265 27.0468C1.36706 28.776 0.999171 30.6293 1 32.5007H19.8903" stroke="#174949" stroke-width="2"/>
<path d="M25.4566 34.9394C29.6227 34.9394 33.0001 31.562 33.0001 27.3959C33.0001 23.2297 29.6227 19.8524 25.4566 19.8524C21.2904 19.8524 17.9131 23.2297 17.9131 27.3959C17.9131 31.562 21.2904 34.9394 25.4566 34.9394Z" stroke="#174949" stroke-width="2"/>
<path d="M25.8354 22.8976V31.7426" stroke="#174949" stroke-width="2"/>
<path d="M21.4131 27.3201H30.258" stroke="#174949" stroke-width="2"/>
</svg>
