<svg width="11" height="19" viewBox="0 0 11 19" fill="none" xmlns="http://www.w3.org/2000/svg">
<path d="M4.25413 9.23607L10.4879 3.00333C10.8159 2.67345 11 2.22721 11 1.76207C11 1.29692 10.8159 0.850682 10.4879 0.5208C10.3242 0.355777 10.1295 0.224793 9.91487 0.135407C9.70028 0.0460202 9.47011 0 9.23764 0C9.00518 0 8.77501 0.0460202 8.56042 0.135407C8.34583 0.224793 8.15107 0.355777 7.98736 0.5208L0.520889 7.986C0.355837 8.14968 0.224832 8.34441 0.13543 8.55896C0.0460288 8.77351 0 9.00364 0 9.23607C0 9.4685 0.0460288 9.69863 0.13543 9.91318C0.224832 10.1277 0.355837 10.3225 0.520889 10.4861L7.98736 18.0394C8.15191 18.2026 8.34705 18.3317 8.5616 18.4193C8.77615 18.5069 9.00589 18.5513 9.23764 18.55C9.4694 18.5513 9.69914 18.5069 9.91369 18.4193C10.1282 18.3317 10.3234 18.2026 10.4879 18.0394C10.8159 17.7095 11 17.2633 11 16.7981C11 16.333 10.8159 15.8867 10.4879 15.5568L4.25413 9.23607Z" fill="white"/>
</svg>
