<svg width="36" height="36" viewBox="0 0 36 36" fill="none" xmlns="http://www.w3.org/2000/svg">
<circle cx="18" cy="18" r="18" fill="white"/>
<path d="M12.4167 24.5104H13.4083L19.5177 18.401L18.526 17.4094L12.4167 23.5188V24.5104ZM22.5458 17.374L19.5354 14.399L20.5271 13.4073C20.7986 13.1358 21.1321 13 21.5276 13C21.9231 13 22.2566 13.1358 22.5281 13.4073L23.5198 14.399C23.7913 14.6705 23.933 14.9981 23.9448 15.3818C23.9566 15.7655 23.8267 16.0931 23.5552 16.3646L22.5458 17.374ZM21.5188 18.4187L14.0104 25.9271H11V22.9167L18.5083 15.4083L21.5188 18.4187ZM19.0219 17.9052L18.526 17.4094L19.5177 18.401L19.0219 17.9052Z" fill="#174949"/>
</svg>
