<svg width="21" height="23" viewBox="0 0 21 23" fill="none" xmlns="http://www.w3.org/2000/svg">
<path d="M19.2337 8.71605L4.67373 1.02335C4.09912 0.721143 3.45029 0.613557 2.8157 0.715256C2.18111 0.816955 1.59165 1.12299 1.12767 1.59164C0.663702 2.06028 0.347801 2.66873 0.223043 3.33403C0.0982844 3.99933 0.17074 4.68909 0.43053 5.30928L2.92653 11.2107C2.98316 11.3534 3.01233 11.5065 3.01233 11.6613C3.01233 11.816 2.98316 11.9692 2.92653 12.1118L0.43053 18.0132C0.219098 18.5152 0.129716 19.0649 0.170507 19.6126C0.211297 20.1603 0.380966 20.6886 0.664096 21.1493C0.947225 21.6101 1.33484 21.9888 1.79171 22.2511C2.24857 22.5133 2.76022 22.6507 3.28013 22.6508C3.76709 22.6457 4.2468 22.5256 4.68413 22.2992L19.2441 14.6065C19.7606 14.3319 20.1947 13.9112 20.498 13.3911C20.8014 12.8711 20.962 12.2722 20.962 11.6613C20.962 11.0504 20.8014 10.4515 20.498 9.93142C20.1947 9.41136 19.7606 8.99059 19.2441 8.71605H19.2337ZM18.3081 12.6393L3.74813 20.332C3.55694 20.4291 3.34225 20.462 3.13285 20.4264C2.92345 20.3908 2.72936 20.2884 2.57658 20.133C2.42381 19.9775 2.31967 19.7764 2.27812 19.5567C2.23657 19.3369 2.25961 19.1089 2.34413 18.9034L4.82973 13.002C4.86191 12.9232 4.88969 12.8425 4.91293 12.7602H12.0785C12.3544 12.7602 12.6189 12.6444 12.8139 12.4383C13.009 12.2323 13.1185 11.9527 13.1185 11.6613C13.1185 11.3698 13.009 11.0903 12.8139 10.8842C12.6189 10.6781 12.3544 10.5623 12.0785 10.5623H4.91293C4.88969 10.4801 4.86191 10.3993 4.82973 10.3205L2.34413 4.41913C2.25961 4.21358 2.23657 3.98564 2.27812 3.76587C2.31967 3.5461 2.42381 3.34501 2.57658 3.18956C2.72936 3.0341 2.92345 2.93172 3.13285 2.89614C3.34225 2.86056 3.55694 2.89348 3.74813 2.99048L18.3081 10.6832C18.4785 10.7754 18.6214 10.9155 18.7213 11.0881C18.8211 11.2607 18.8739 11.459 18.8739 11.6613C18.8739 11.8635 18.8211 12.0619 18.7213 12.2344C18.6214 12.407 18.4785 12.5471 18.3081 12.6393Z" fill="#174949"/>
</svg>
