<svg width="32" height="32" viewBox="0 0 32 32" fill="none" xmlns="http://www.w3.org/2000/svg">
<path d="M19.2507 0C19.499 7.62472e-06 19.7409 0.0768088 19.9415 0.219343C20.1421 0.361877 20.2912 0.562789 20.3671 0.793143L21.6571 4.69943C22.1989 4.95771 22.7172 5.248 23.2121 5.57486L27.3306 4.71086C27.5734 4.66033 27.8264 4.68622 28.0532 4.78481C28.28 4.88339 28.4688 5.04958 28.5924 5.25943L31.8431 10.7429C31.9673 10.9526 32.0198 11.1953 31.9933 11.436C31.9667 11.6768 31.8624 11.9031 31.6954 12.0823L28.8692 15.1223C28.9103 15.7052 28.9103 16.2902 28.8692 16.8731L31.6954 19.9177C31.8624 20.0969 31.9667 20.3232 31.9933 20.564C32.0198 20.8047 31.9673 21.0474 31.8431 21.2571L28.5924 26.7429C28.4684 26.9523 28.2795 27.118 28.0527 27.2162C27.826 27.3143 27.5732 27.3399 27.3306 27.2891L23.2121 26.4251C22.7196 26.7497 22.1989 27.0423 21.6594 27.3006L20.3671 31.2069C20.2912 31.4372 20.1421 31.6381 19.9415 31.7807C19.7409 31.9232 19.499 32 19.2507 32H12.7493C12.501 32 12.2591 31.9232 12.0585 31.7807C11.8579 31.6381 11.7089 31.4372 11.6329 31.2069L10.3453 27.3029C9.80493 27.0454 9.28376 26.7513 8.78557 26.4229L4.66941 27.2891C4.42658 27.3397 4.17356 27.3138 3.9468 27.2152C3.72003 27.1166 3.53123 26.9504 3.40759 26.7406L0.156873 21.2571C0.032742 21.0474 -0.0198361 20.8047 0.00672012 20.564C0.0332763 20.3232 0.137594 20.0969 0.304633 19.9177L3.13083 16.8731C3.08989 16.2917 3.08989 15.7083 3.13083 15.1269L0.304633 12.0823C0.137594 11.9031 0.0332763 11.6768 0.00672012 11.436C-0.0198361 11.1953 0.032742 10.9526 0.156873 10.7429L3.40759 5.25714C3.53157 5.04771 3.72052 4.882 3.94726 4.78384C4.17399 4.68568 4.42683 4.66012 4.66941 4.71086L8.78557 5.57714C9.2828 5.25029 9.80347 4.95543 10.3453 4.69714L11.6352 0.793143C11.711 0.563531 11.8593 0.363151 12.059 0.220686C12.2586 0.0782204 12.4995 0.000972954 12.7469 0H19.2484H19.2507ZM18.3923 2.28571H13.6077L12.2755 6.32457L11.3772 6.752C10.9356 6.9626 10.5093 7.2024 10.1013 7.46972L9.27107 8.01829L5.01184 7.12229L2.61954 11.1634L5.53955 14.3131L5.46919 15.2823C5.43549 15.7602 5.43549 16.2398 5.46919 16.7177L5.53955 17.6869L2.61484 20.8366L5.00949 24.8777L9.26872 23.984L10.099 24.5303C10.507 24.7976 10.9333 25.0374 11.3749 25.248L12.2732 25.6754L13.6077 29.7143H18.397L19.7339 25.6731L20.6298 25.248C21.0709 25.0379 21.4965 24.7981 21.9034 24.5303L22.7313 23.984L26.9929 24.8777L29.3852 20.8366L26.4628 17.6869L26.5332 16.7177C26.567 16.239 26.567 15.7587 26.5332 15.28L26.4628 14.3109L29.3875 11.1634L26.9929 7.12229L22.7313 8.01371L21.9034 7.46972C21.4965 7.20186 21.071 6.96204 20.6298 6.752L19.7339 6.32686L18.3946 2.28571H18.3923ZM16 9.14286C17.8661 9.14286 19.6558 9.8653 20.9753 11.1513C22.2949 12.4372 23.0362 14.1814 23.0362 16C23.0362 17.8186 22.2949 19.5628 20.9753 20.8487C19.6558 22.1347 17.8661 22.8571 16 22.8571C14.1339 22.8571 12.3442 22.1347 11.0247 20.8487C9.70513 19.5628 8.96382 17.8186 8.96382 16C8.96382 14.1814 9.70513 12.4372 11.0247 11.1513C12.3442 9.8653 14.1339 9.14286 16 9.14286ZM16 11.4286C14.7559 11.4286 13.5628 11.9102 12.6831 12.7675C11.8034 13.6248 11.3092 14.7876 11.3092 16C11.3092 17.2124 11.8034 18.3752 12.6831 19.2325C13.5628 20.0898 14.7559 20.5714 16 20.5714C17.2441 20.5714 18.4372 20.0898 19.3169 19.2325C20.1966 18.3752 20.6908 17.2124 20.6908 16C20.6908 14.7876 20.1966 13.6248 19.3169 12.7675C18.4372 11.9102 17.2441 11.4286 16 11.4286Z" fill="white"/>
</svg>
