<svg width="44" height="33" viewBox="0 0 44 33" fill="none" xmlns="http://www.w3.org/2000/svg">
<path fill-rule="evenodd" clip-rule="evenodd" d="M13.125 1C8.69517 1 5.10413 4.58172 5.10413 9C5.10413 13.4183 8.69517 17 13.125 17C17.5548 17 21.1458 13.4183 21.1458 9C21.1458 4.58172 17.5548 1 13.125 1ZM8.02079 9C8.02079 6.18836 10.306 3.90909 13.125 3.90909C15.9439 3.90909 18.2291 6.18836 18.2291 9C18.2291 11.8116 15.9439 14.0909 13.125 14.0909C10.306 14.0909 8.02079 11.8116 8.02079 9Z" fill="white"/>
<path d="M22.6042 1C21.7988 1 21.1459 1.65122 21.1459 2.45454C21.1459 3.25786 21.7988 3.90909 22.6042 3.90909C25.4232 3.90909 27.7084 6.18836 27.7084 9C27.7084 11.8116 25.4232 14.0909 22.6042 14.0909C21.7988 14.0909 21.1459 14.7421 21.1459 15.5454C21.1459 16.3488 21.7988 17 22.6042 17C27.034 17 30.625 13.4183 30.625 9C30.625 4.58172 27.034 1 22.6042 1Z" fill="white"/>
<path d="M27.8304 21.3865C28.1529 20.6503 29.0126 20.3143 29.7506 20.6359C32.8379 21.9812 35 25.0553 35 28.6364V31.5455C35 32.3488 34.3471 33 33.5417 33C32.7363 33 32.0834 32.3488 32.0834 31.5455V28.6364C32.0834 26.2528 30.6462 24.2007 28.5828 23.3017C27.8447 22.9801 27.5079 22.1225 27.8304 21.3865Z" fill="white"/>
<path d="M8.75 19.9091C3.91751 19.9091 0 23.8165 0 28.6364V31.5455C0 32.3488 0.652918 33 1.45833 33C2.26374 33 2.91667 32.3488 2.91667 31.5455V28.6364C2.91667 25.4232 5.52834 22.8182 8.75 22.8182H17.5C20.7216 22.8182 23.3333 25.4232 23.3333 28.6364V31.5455C23.3333 32.3488 23.9862 33 24.7917 33C25.5971 33 26.25 32.3488 26.25 31.5455V28.6364C26.25 23.8165 22.3325 19.9091 17.5 19.9091H8.75Z" fill="white"/>
<path d="M38.7571 1V10" stroke="white" stroke-width="1.5" stroke-linecap="round"/>
<path d="M43 5.8338L34 5.74991" stroke="white" stroke-width="1.5" stroke-linecap="round"/>
</svg>
