<svg width="73" height="73" viewBox="0 0 73 73" fill="none" xmlns="http://www.w3.org/2000/svg">
<path d="M73 36.5C73 31.7068 72.0559 26.9604 70.2216 22.5321C68.3873 18.1037 65.6987 14.0799 62.3094 10.6906C58.9201 7.30126 54.8963 4.61269 50.4679 2.7784C46.0396 0.9441 41.2932 -2.0952e-07 36.5 0C31.7068 2.0952e-07 26.9604 0.944101 22.5321 2.7784C18.1037 4.61269 14.0799 7.30127 10.6906 10.6906C7.30126 14.0799 4.61269 18.1037 2.7784 22.5321C0.9441 26.9604 -4.19039e-07 31.7068 0 36.5L36.5 36.5H73Z" fill="#2CB88F"/>
<circle cx="37" cy="37" r="30" fill="white"/>
<circle cx="36.5" cy="37" r="31" fill="#1F8684"/>
<g clip-path="url(#clip0_1030_1161)">
<path d="M31.3279 40.1725C31.1333 39.8805 30.8689 39.635 30.5506 39.4597L22.3668 34.9516C20.4431 33.8919 21.0548 30.9846 23.2762 30.6297L47.7936 26.7133C48.7764 26.5562 49.6114 26.9931 50.0699 27.681" stroke="white" stroke-width="3.75" stroke-linecap="round"/>
<path d="M31.3278 40.1725C31.5224 40.4645 31.6473 40.803 31.6866 41.1642L32.6982 50.4526C32.936 52.636 35.8547 53.1902 37.0371 51.2764L50.087 30.1544C50.6102 29.3077 50.5283 28.3688 50.0698 27.681" stroke="white" stroke-width="3.75"/>
</g>
<defs>
<clipPath id="clip0_1030_1161">
<rect width="33.7009" height="32.8147" fill="white" transform="translate(43 12.1429) rotate(56.3166)"/>
</clipPath>
</defs>
</svg>
