<svg width="41" height="36" viewBox="0 0 41 36" fill="none" xmlns="http://www.w3.org/2000/svg">
<path d="M2 8.4C2 6.15978 2 5.03968 2.44809 4.18404C2.84222 3.43138 3.47114 2.81946 4.24471 2.43598C5.12412 2 6.27535 2 8.57778 2H32.4222C34.7246 2 35.876 2 36.7553 2.43598C37.5288 2.81946 38.1578 3.43138 38.5519 4.18404C39 5.03968 39 6.1598 39 8.4V34L32.1667 30.6756C31.6487 30.4236 31.3897 30.2976 31.1182 30.2088C30.8773 30.13 30.6292 30.073 30.3774 30.0386C30.0937 30 29.8041 30 29.225 30H8.57778C6.27533 30 5.12412 30 4.24471 29.564C3.47114 29.1806 2.84222 28.5686 2.44809 27.816C2 26.9604 2 25.8402 2 23.6V8.4Z" stroke="white" stroke-width="3" stroke-linecap="round" stroke-linejoin="round"/>
</svg>
