<svg width="44" height="45" viewBox="0 0 44 45" fill="none" xmlns="http://www.w3.org/2000/svg">
<g filter="url(#filter0_b_257_294)">
<circle cx="22.0016" cy="22.0016" r="22.0016" fill="white" fill-opacity="0.25"/>
</g>
<path d="M26.4019 22.0059L17.6013 13.2052V19.8057H0V24.206H17.6013V30.8065M44.0031 22.0059C44.0042 27.2632 42.1226 32.3471 38.6992 36.337C35.2758 40.3269 30.5368 42.9591 25.3404 43.7569C20.144 44.5547 14.8336 43.4654 10.3709 40.6862C5.90826 37.9071 2.58825 33.6218 1.01207 28.6063H5.69841C7.23016 32.3929 10.0312 35.5289 13.6215 37.4768C17.2118 39.4247 21.3679 40.0633 25.3773 39.283C29.3868 38.5028 33.0001 36.3523 35.598 33.2002C38.1958 30.0481 39.6165 26.0906 39.6165 22.0059C39.6165 17.9212 38.1958 13.9637 35.598 10.8115C33.0001 7.65942 29.3868 5.50896 25.3773 4.72872C21.3679 3.94847 17.2118 4.58702 13.6215 6.53492C10.0312 8.48282 7.23016 11.6188 5.69841 15.4054H1.01207C2.58825 10.3899 5.90826 6.10465 10.3709 3.3255C14.8336 0.546343 20.144 -0.542949 25.3404 0.254863C30.5368 1.05268 35.2758 3.68485 38.6992 7.67476C42.1226 11.6647 44.0042 16.7486 44.0031 22.0059Z" fill="#1F8684"/>
<defs>
<filter id="filter0_b_257_294" x="-2.93354" y="-2.93354" width="49.8703" height="49.8702" filterUnits="userSpaceOnUse" color-interpolation-filters="sRGB">
<feFlood flood-opacity="0" result="BackgroundImageFix"/>
<feGaussianBlur in="BackgroundImageFix" stdDeviation="1.46677"/>
<feComposite in2="SourceAlpha" operator="in" result="effect1_backgroundBlur_257_294"/>
<feBlend mode="normal" in="SourceGraphic" in2="effect1_backgroundBlur_257_294" result="shape"/>
</filter>
</defs>
</svg>
