<svg width="206" height="62" viewBox="0 0 206 62" fill="none" xmlns="http://www.w3.org/2000/svg">
<path d="M61.4098 61.75H60.0898V44.73H61.2198L68.5398 57.74L75.8098 44.73H76.9198L76.9398 61.75H75.6198L75.5998 47.46L68.8398 59.52H68.1798L61.3998 47.54V61.76L61.4098 61.75Z" fill="#1F8684"/>
<path d="M87.8499 61.75H86.4799V55.89L79.8599 44.73H81.3199L87.1799 54.62L93.0599 44.73H94.4499L87.8399 55.89V61.75H87.8499Z" fill="#1F8684"/>
<path d="M103.48 61.75V44.73H104.82V60.51H114.24V61.75H103.48Z" fill="#1F8684"/>
<path d="M123.98 61.87C122.76 61.87 121.62 61.65 120.57 61.21C119.52 60.77 118.61 60.17 117.84 59.41C117.07 58.65 116.47 57.74 116.04 56.68C115.61 55.62 115.39 54.47 115.39 53.24C115.39 52.01 115.6 50.84 116.04 49.79C116.48 48.74 117.07 47.83 117.84 47.07C118.61 46.31 119.52 45.71 120.57 45.27C121.62 44.83 122.76 44.61 123.98 44.61C125.2 44.61 126.34 44.83 127.39 45.27C128.44 45.71 129.35 46.31 130.12 47.07C130.89 47.83 131.49 48.74 131.92 49.79C132.35 50.84 132.57 51.99 132.57 53.24C132.57 54.49 132.35 55.62 131.92 56.68C131.49 57.74 130.89 58.65 130.12 59.41C129.35 60.17 128.44 60.77 127.39 61.21C126.34 61.65 125.2 61.87 123.98 61.87ZM123.98 60.61C125.02 60.61 125.97 60.42 126.85 60.05C127.73 59.68 128.49 59.16 129.14 58.51C129.79 57.86 130.3 57.08 130.66 56.18C131.02 55.28 131.2 54.3 131.2 53.25C131.2 52.2 131.02 51.22 130.66 50.32C130.3 49.42 129.79 48.64 129.14 47.99C128.49 47.34 127.72 46.82 126.85 46.45C125.97 46.08 125.01 45.89 123.98 45.89C122.95 45.89 121.99 46.08 121.11 46.45C120.23 46.82 119.47 47.34 118.82 47.99C118.17 48.65 117.66 49.42 117.3 50.32C116.94 51.22 116.76 52.2 116.76 53.25C116.76 54.3 116.94 55.28 117.3 56.18C117.66 57.08 118.17 57.86 118.82 58.51C119.47 59.17 120.24 59.68 121.11 60.05C121.99 60.42 122.95 60.61 123.98 60.61Z" fill="#1F8684"/>
<path d="M143.68 61.87C142.46 61.87 141.32 61.65 140.28 61.21C139.24 60.77 138.33 60.17 137.56 59.41C136.79 58.65 136.19 57.74 135.76 56.68C135.33 55.62 135.11 54.47 135.11 53.24C135.11 52.01 135.32 50.84 135.76 49.79C136.2 48.74 136.79 47.83 137.56 47.07C138.33 46.31 139.24 45.71 140.28 45.27C141.32 44.83 142.46 44.61 143.68 44.61C144.9 44.61 145.96 44.81 146.98 45.2C148 45.6 148.88 46.19 149.62 46.99L148.75 47.89C148.04 47.16 147.27 46.64 146.43 46.33C145.59 46.02 144.69 45.87 143.74 45.87C142.7 45.87 141.74 46.06 140.86 46.43C139.97 46.8 139.21 47.32 138.57 47.97C137.93 48.63 137.42 49.4 137.05 50.3C136.68 51.2 136.5 52.18 136.5 53.23C136.5 54.28 136.68 55.26 137.05 56.16C137.42 57.06 137.93 57.84 138.57 58.49C139.21 59.15 139.98 59.66 140.86 60.03C141.75 60.4 142.71 60.59 143.74 60.59C144.7 60.59 145.6 60.43 146.43 60.12C147.27 59.8 148.04 59.28 148.75 58.55L149.62 59.45C148.88 60.26 148 60.86 146.98 61.26C145.96 61.66 144.86 61.85 143.68 61.85V61.87Z" fill="#1F8684"/>
<path d="M37.8198 38.29H31.0498L36.8698 9.20001H43.6398L37.8198 38.29ZM53.8998 26.36H39.7298L40.8498 20.67H55.0198L53.8998 26.36ZM56.8098 9.20001H63.5398L57.7198 38.29H50.9898L56.8098 9.20001Z" fill="#2CB88F"/>
<path d="M61.1099 38.02L79.8899 8.92999H86.5799L93.7299 38.02H86.9999L81.3499 12.25H84.0099L68.2999 38.02H61.1099ZM68.8799 31.79L71.6199 26.68H86.6199L87.4099 31.79H68.8799Z" fill="#2CB88F"/>
<path d="M96.4602 38.29L102.28 9.20001H114.12C117.75 9.20001 120.55 9.99001 122.53 11.57C124.51 13.15 125.5 15.36 125.5 18.22C125.5 20.66 124.93 22.77 123.78 24.56C122.63 26.35 120.99 27.73 118.88 28.69C116.76 29.66 114.26 30.15 111.38 30.15H101.9L105.43 27.2L103.22 38.3H96.4502L96.4602 38.29ZM105.27 27.99L102.94 24.79H111.62C113.87 24.79 115.6 24.29 116.84 23.27C118.07 22.26 118.69 20.78 118.69 18.84C118.69 17.43 118.21 16.38 117.26 15.7C116.31 15.02 114.97 14.68 113.25 14.68H105.06L108.59 11.4L105.27 27.98V27.99ZM115.16 38.29L109.22 27.74H116.28L122.26 38.29H115.15H115.16Z" fill="#2CB88F"/>
<path d="M134.77 32.89H150.64L149.52 38.29H127L132.82 9.20001H154.8L153.68 14.6H138.43L134.77 32.89ZM136.68 20.92H150.69L149.65 26.16H135.65L136.69 20.92H136.68Z" fill="#2CB88F"/>
<path d="M27.4501 0L23.7701 6.35L20.5101 12.03C19.8801 11.97 19.2601 11.94 18.6301 11.94C18.1001 11.94 17.5601 11.97 17.0901 12.03H17.0601C16.2401 12.09 15.5501 12.22 14.9301 12.44C13.9301 12.78 13.1401 13.26 12.6101 13.85C12.0501 14.45 11.7901 15.1 11.7901 15.89C11.7901 16.68 12.0701 17.27 12.6401 17.74C13.2001 18.21 13.9601 18.62 14.9001 18.93C15.3401 19.09 15.8101 19.21 16.2801 19.37L12.8901 25.23C12.1401 25.01 11.3801 24.76 10.6301 24.48C9.4701 24.07 8.4301 23.57 7.4901 22.94C6.5501 22.31 5.8001 21.5 5.2301 20.53C4.6301 19.53 4.3501 18.3 4.3501 16.86C4.3501 14.63 4.9501 12.72 6.1701 11.09C7.3601 9.49 9.0901 8.24 11.2801 7.33C13.4801 6.42 16.0801 5.98 19.0301 5.98C20.2501 5.98 21.4101 6.04 22.5101 6.17H22.5401L27.4501 0Z" fill="url(#paint0_linear_648_907)"/>
<path d="M8.47 32.89L5.43 38.13C5.24 38.1 5.09 38.04 4.93 37.97C4.4 37.81 3.86 37.63 3.36 37.44C2.04 36.88 0.91 36.28 0 35.62L3.01 29.88C4.01 30.6 5.11 31.2 6.24 31.7C6.46 31.79 6.65 31.89 6.87 31.95L8.47 32.89Z" fill="url(#paint1_linear_648_907)"/>
<path d="M26.5604 7.08002L23.3604 12.6C24.8304 13.01 26.1504 13.63 27.3404 14.42L30.1604 8.71002C29.1204 8.05002 27.9004 7.49002 26.5504 7.08002H26.5604Z" fill="#2CB88F"/>
<path d="M27.7102 28.28C27.7102 30.47 27.1102 32.41 25.8802 34.03C24.6502 35.68 22.9402 36.97 20.7302 37.83C18.4802 38.76 15.9102 39.21 12.8802 39.21C12.0102 39.21 11.1102 39.15 10.2402 39.09L3.47021 47.02L8.20021 38.79L10.8402 34.24L11.5002 33.1C12.1902 33.19 12.9102 33.22 13.6002 33.22C14.9802 33.22 16.1802 33.07 17.1602 32.8C18.1802 32.47 18.9302 32.02 19.4702 31.51C20.0102 30.94 20.2802 30.28 20.2802 29.47C20.2802 28.72 20.0102 28.15 19.4102 27.67C18.8102 27.19 18.0602 26.83 17.1002 26.5C16.6502 26.35 16.1402 26.2 15.6002 25.99L18.9802 20.15C19.7902 20.36 20.6002 20.63 21.4102 20.93C22.5802 21.32 23.6002 21.83 24.5502 22.43C25.4802 23.06 26.2602 23.81 26.8302 24.74C27.4302 25.7 27.7002 26.87 27.7002 28.27L27.7102 28.28Z" fill="#2CB88F"/>
<path d="M205.29 17C205.29 17 204.48 16.19 203.44 16.65L175.25 27L190.07 32.28L205.3 17.01L205.29 17Z" fill="#2CB88F"/>
<path d="M205.29 17L190.06 32.27L195.4 47.08L205.63 18.84C206.09 17.81 205.28 17 205.28 17H205.29Z" fill="url(#paint2_linear_648_907)"/>
<defs>
<linearGradient id="paint0_linear_648_907" x1="4.3601" y1="12.62" x2="27.4501" y2="12.62" gradientUnits="userSpaceOnUse">
<stop stop-color="#134944"/>
<stop offset="1" stop-color="#134944"/>
</linearGradient>
<linearGradient id="paint1_linear_648_907" x1="0" y1="34" x2="8.47" y2="34" gradientUnits="userSpaceOnUse">
<stop stop-color="#134944"/>
<stop offset="1" stop-color="#134944"/>
</linearGradient>
<linearGradient id="paint2_linear_648_907" x1="190.08" y1="31.5601" x2="205.155" y2="32.2183" gradientUnits="userSpaceOnUse">
<stop stop-color="#134944"/>
<stop offset="1" stop-color="#134944"/>
</linearGradient>
</defs>
</svg>
