<svg width="29" height="29" viewBox="0 0 29 29" fill="none" xmlns="http://www.w3.org/2000/svg">
<path d="M6.04167 8.41667C4.03964 8.41667 2.41667 10.0396 2.41667 12.0417V21.7083C2.41667 23.7104 4.03964 25.3333 6.04167 25.3333H18.125C20.1271 25.3333 21.75 23.7104 21.75 21.7083V17.4792C21.75 16.8118 22.291 16.2708 22.9583 16.2708C23.6257 16.2708 24.1667 16.8118 24.1667 17.4792V21.7083C24.1667 25.045 21.4617 27.75 18.125 27.75H6.04167C2.70495 27.75 0 25.045 0 21.7083V12.0417C0 8.70495 2.70495 6 6.04167 6H10.2708C10.9382 6 11.4792 6.541 11.4792 7.20833C11.4792 7.87567 10.9382 8.41667 10.2708 8.41667H6.04167Z" fill="#174949"/>
<path fill-rule="evenodd" clip-rule="evenodd" d="M18.7685 6.33283C17.8248 5.38906 16.2946 5.38906 15.3509 6.33283L10.1138 11.5699L9.30933 16.4341C9.16058 17.3334 9.94032 18.1122 10.8393 17.9621L15.6969 17.1518L20.9334 11.9154C21.8772 10.9716 21.8772 9.44145 20.9334 8.49768L18.7685 6.33283ZM11.9417 15.3282L12.3714 12.7299L17.0597 8.04166L19.2245 10.2065L14.5356 14.8955L11.9417 15.3282Z" fill="#174949"/>
</svg>
